<mxfile host="app.diagrams.net" agent="Mozilla/5.0 (Macintosh; Intel Mac OS X 10_15_7) AppleWebKit/537.36 (KHTML, like Gecko) Chrome/130.0.0.0 Safari/537.36" version="24.8.2">
  <diagram name="Page-1" id="NKPnQRwSP1cfZ27L-5-N">
    <mxGraphModel dx="1434" dy="907" grid="1" gridSize="10" guides="1" tooltips="1" connect="1" arrows="1" fold="1" page="1" pageScale="1" pageWidth="1700" pageHeight="1100" math="0" shadow="0">
      <root>
        <mxCell id="0" />
        <mxCell id="1" parent="0" />
        <mxCell id="Hi555N7dm8DbJ_s_1SJW-49" style="edgeStyle=orthogonalEdgeStyle;rounded=0;orthogonalLoop=1;jettySize=auto;html=1;" edge="1" parent="1" source="Hi555N7dm8DbJ_s_1SJW-44" target="Hi555N7dm8DbJ_s_1SJW-3">
          <mxGeometry relative="1" as="geometry" />
        </mxCell>
        <mxCell id="Hi555N7dm8DbJ_s_1SJW-44" value="" style="rounded=1;whiteSpace=wrap;html=1;fillColor=none;" vertex="1" parent="1">
          <mxGeometry x="250" y="81" width="200" height="150" as="geometry" />
        </mxCell>
        <mxCell id="Hi555N7dm8DbJ_s_1SJW-27" value="" style="rounded=1;whiteSpace=wrap;html=1;fillColor=none;" vertex="1" parent="1">
          <mxGeometry x="265" y="336" width="170" height="330" as="geometry" />
        </mxCell>
        <mxCell id="Hi555N7dm8DbJ_s_1SJW-12" value="" style="rounded=0;whiteSpace=wrap;html=1;fillColor=none;" vertex="1" parent="1">
          <mxGeometry x="140" y="296" width="330" height="400" as="geometry" />
        </mxCell>
        <mxCell id="Hi555N7dm8DbJ_s_1SJW-1" value="Current System Design" style="text;html=1;align=center;verticalAlign=middle;resizable=0;points=[];autosize=1;strokeColor=none;fillColor=none;fontSize=23;fontStyle=1" vertex="1" parent="1">
          <mxGeometry x="40" y="25" width="260" height="40" as="geometry" />
        </mxCell>
        <mxCell id="Hi555N7dm8DbJ_s_1SJW-2" value="MongoDB" style="shape=cylinder3;whiteSpace=wrap;html=1;boundedLbl=1;backgroundOutline=1;size=15;" vertex="1" parent="1">
          <mxGeometry x="675" y="433" width="60" height="80" as="geometry" />
        </mxCell>
        <mxCell id="Hi555N7dm8DbJ_s_1SJW-14" style="edgeStyle=orthogonalEdgeStyle;rounded=0;orthogonalLoop=1;jettySize=auto;html=1;exitX=1;exitY=0.75;exitDx=0;exitDy=0;entryX=0;entryY=0.5;entryDx=0;entryDy=0;entryPerimeter=0;" edge="1" parent="1" source="Hi555N7dm8DbJ_s_1SJW-3" target="Hi555N7dm8DbJ_s_1SJW-2">
          <mxGeometry relative="1" as="geometry">
            <mxPoint x="640" y="566" as="targetPoint" />
          </mxGeometry>
        </mxCell>
        <mxCell id="Hi555N7dm8DbJ_s_1SJW-20" style="edgeStyle=orthogonalEdgeStyle;rounded=0;orthogonalLoop=1;jettySize=auto;html=1;exitX=1;exitY=0.25;exitDx=0;exitDy=0;entryX=0;entryY=0.5;entryDx=0;entryDy=0;" edge="1" parent="1" source="Hi555N7dm8DbJ_s_1SJW-3" target="Hi555N7dm8DbJ_s_1SJW-18">
          <mxGeometry relative="1" as="geometry" />
        </mxCell>
        <mxCell id="Hi555N7dm8DbJ_s_1SJW-33" style="edgeStyle=orthogonalEdgeStyle;rounded=0;orthogonalLoop=1;jettySize=auto;html=1;exitX=1;exitY=0.75;exitDx=0;exitDy=0;entryX=0;entryY=0.5;entryDx=0;entryDy=0;" edge="1" parent="1" source="Hi555N7dm8DbJ_s_1SJW-3" target="Hi555N7dm8DbJ_s_1SJW-29">
          <mxGeometry relative="1" as="geometry" />
        </mxCell>
        <mxCell id="Hi555N7dm8DbJ_s_1SJW-3" value="EC2" style="rounded=0;whiteSpace=wrap;html=1;" vertex="1" parent="1">
          <mxGeometry x="310" y="391" width="80" height="110" as="geometry" />
        </mxCell>
        <mxCell id="Hi555N7dm8DbJ_s_1SJW-25" style="edgeStyle=orthogonalEdgeStyle;rounded=0;orthogonalLoop=1;jettySize=auto;html=1;entryX=0;entryY=0.5;entryDx=0;entryDy=0;" edge="1" parent="1" source="Hi555N7dm8DbJ_s_1SJW-5" target="Hi555N7dm8DbJ_s_1SJW-23">
          <mxGeometry relative="1" as="geometry">
            <Array as="points">
              <mxPoint x="51" y="831" />
            </Array>
          </mxGeometry>
        </mxCell>
        <mxCell id="Hi555N7dm8DbJ_s_1SJW-51" style="edgeStyle=orthogonalEdgeStyle;rounded=0;orthogonalLoop=1;jettySize=auto;html=1;entryX=0;entryY=0.5;entryDx=0;entryDy=0;" edge="1" parent="1" source="Hi555N7dm8DbJ_s_1SJW-5" target="Hi555N7dm8DbJ_s_1SJW-44">
          <mxGeometry relative="1" as="geometry">
            <Array as="points">
              <mxPoint x="51" y="156" />
            </Array>
          </mxGeometry>
        </mxCell>
        <mxCell id="Hi555N7dm8DbJ_s_1SJW-5" value="" style="sketch=0;outlineConnect=0;fontColor=#232F3E;gradientColor=none;fillColor=#232F3D;strokeColor=none;dashed=0;verticalLabelPosition=bottom;verticalAlign=top;align=center;html=1;fontSize=12;fontStyle=0;aspect=fixed;pointerEvents=1;shape=mxgraph.aws4.mobile_client;" vertex="1" parent="1">
          <mxGeometry x="40" y="426" width="21.03" height="40" as="geometry" />
        </mxCell>
        <mxCell id="Hi555N7dm8DbJ_s_1SJW-10" style="edgeStyle=orthogonalEdgeStyle;rounded=0;orthogonalLoop=1;jettySize=auto;html=1;entryX=0;entryY=0.5;entryDx=0;entryDy=0;" edge="1" parent="1" source="Hi555N7dm8DbJ_s_1SJW-5" target="Hi555N7dm8DbJ_s_1SJW-3">
          <mxGeometry relative="1" as="geometry">
            <mxPoint x="229" y="446" as="sourcePoint" />
          </mxGeometry>
        </mxCell>
        <mxCell id="Hi555N7dm8DbJ_s_1SJW-7" value="S3" style="strokeWidth=2;html=1;shape=mxgraph.flowchart.database;whiteSpace=wrap;" vertex="1" parent="1">
          <mxGeometry x="320" y="586" width="60" height="60" as="geometry" />
        </mxCell>
        <mxCell id="Hi555N7dm8DbJ_s_1SJW-11" style="edgeStyle=orthogonalEdgeStyle;rounded=0;orthogonalLoop=1;jettySize=auto;html=1;exitX=0.5;exitY=1;exitDx=0;exitDy=0;entryX=0.5;entryY=0;entryDx=0;entryDy=0;entryPerimeter=0;" edge="1" parent="1" source="Hi555N7dm8DbJ_s_1SJW-3" target="Hi555N7dm8DbJ_s_1SJW-7">
          <mxGeometry relative="1" as="geometry" />
        </mxCell>
        <mxCell id="Hi555N7dm8DbJ_s_1SJW-13" value="AWS" style="text;html=1;align=center;verticalAlign=middle;whiteSpace=wrap;rounded=0;fontStyle=1;fontSize=16;" vertex="1" parent="1">
          <mxGeometry x="150" y="316" width="60" height="30" as="geometry" />
        </mxCell>
        <mxCell id="Hi555N7dm8DbJ_s_1SJW-15" value="Apple Login" style="rounded=1;whiteSpace=wrap;html=1;" vertex="1" parent="1">
          <mxGeometry x="650" y="191" width="120" height="40" as="geometry" />
        </mxCell>
        <mxCell id="Hi555N7dm8DbJ_s_1SJW-16" value="Google Login" style="rounded=1;whiteSpace=wrap;html=1;" vertex="1" parent="1">
          <mxGeometry x="650" y="251" width="120" height="40" as="geometry" />
        </mxCell>
        <mxCell id="Hi555N7dm8DbJ_s_1SJW-17" value="Meta Login" style="rounded=1;whiteSpace=wrap;html=1;" vertex="1" parent="1">
          <mxGeometry x="650" y="311" width="120" height="40" as="geometry" />
        </mxCell>
        <mxCell id="Hi555N7dm8DbJ_s_1SJW-18" value="" style="rounded=1;whiteSpace=wrap;html=1;fillColor=none;" vertex="1" parent="1">
          <mxGeometry x="620" y="150" width="180" height="235" as="geometry" />
        </mxCell>
        <mxCell id="Hi555N7dm8DbJ_s_1SJW-19" value="Auth Providers" style="text;html=1;align=center;verticalAlign=middle;whiteSpace=wrap;rounded=0;fontStyle=1" vertex="1" parent="1">
          <mxGeometry x="650" y="161" width="120" height="30" as="geometry" />
        </mxCell>
        <mxCell id="Hi555N7dm8DbJ_s_1SJW-23" value="" style="rounded=1;whiteSpace=wrap;html=1;fillColor=none;" vertex="1" parent="1">
          <mxGeometry x="200" y="726" width="200" height="210" as="geometry" />
        </mxCell>
        <mxCell id="Hi555N7dm8DbJ_s_1SJW-21" value="Google Analytics" style="rounded=1;whiteSpace=wrap;html=1;" vertex="1" parent="1">
          <mxGeometry x="240" y="786" width="120" height="50" as="geometry" />
        </mxCell>
        <mxCell id="Hi555N7dm8DbJ_s_1SJW-22" value="Crashlytics" style="rounded=1;whiteSpace=wrap;html=1;" vertex="1" parent="1">
          <mxGeometry x="240" y="856" width="120" height="50" as="geometry" />
        </mxCell>
        <mxCell id="Hi555N7dm8DbJ_s_1SJW-24" value="Analytics &amp;amp; Monitoring" style="text;html=1;align=center;verticalAlign=middle;whiteSpace=wrap;rounded=0;fontStyle=1" vertex="1" parent="1">
          <mxGeometry x="235.5" y="736" width="129" height="30" as="geometry" />
        </mxCell>
        <mxCell id="Hi555N7dm8DbJ_s_1SJW-28" value="us-east-1" style="text;html=1;align=center;verticalAlign=middle;whiteSpace=wrap;rounded=0;fontStyle=1" vertex="1" parent="1">
          <mxGeometry x="289" y="339" width="60" height="30" as="geometry" />
        </mxCell>
        <mxCell id="Hi555N7dm8DbJ_s_1SJW-29" value="" style="rounded=1;whiteSpace=wrap;html=1;fillColor=none;" vertex="1" parent="1">
          <mxGeometry x="600" y="536" width="200" height="210" as="geometry" />
        </mxCell>
        <mxCell id="Hi555N7dm8DbJ_s_1SJW-30" value="Sentry" style="rounded=1;whiteSpace=wrap;html=1;" vertex="1" parent="1">
          <mxGeometry x="640" y="596" width="120" height="50" as="geometry" />
        </mxCell>
        <mxCell id="Hi555N7dm8DbJ_s_1SJW-31" value="New Relic" style="rounded=1;whiteSpace=wrap;html=1;" vertex="1" parent="1">
          <mxGeometry x="640" y="666" width="120" height="50" as="geometry" />
        </mxCell>
        <mxCell id="Hi555N7dm8DbJ_s_1SJW-32" value="Observability and Monitoring" style="text;html=1;align=center;verticalAlign=middle;whiteSpace=wrap;rounded=0;fontStyle=1" vertex="1" parent="1">
          <mxGeometry x="635.5" y="546" width="129" height="30" as="geometry" />
        </mxCell>
        <mxCell id="Hi555N7dm8DbJ_s_1SJW-34" value="" style="rounded=1;whiteSpace=wrap;html=1;" vertex="1" parent="1">
          <mxGeometry x="1040" y="206" width="280" height="304" as="geometry" />
        </mxCell>
        <mxCell id="Hi555N7dm8DbJ_s_1SJW-35" value="EC2 - Ubuntu" style="text;html=1;align=center;verticalAlign=middle;whiteSpace=wrap;rounded=0;fontStyle=1" vertex="1" parent="1">
          <mxGeometry x="1060" y="220" width="90" height="30" as="geometry" />
        </mxCell>
        <mxCell id="Hi555N7dm8DbJ_s_1SJW-36" value="" style="rounded=1;whiteSpace=wrap;html=1;" vertex="1" parent="1">
          <mxGeometry x="1060" y="260" width="240" height="230" as="geometry" />
        </mxCell>
        <mxCell id="Hi555N7dm8DbJ_s_1SJW-37" value="Node.js" style="text;html=1;align=center;verticalAlign=middle;whiteSpace=wrap;rounded=0;" vertex="1" parent="1">
          <mxGeometry x="1100" y="270" width="60" height="30" as="geometry" />
        </mxCell>
        <mxCell id="Hi555N7dm8DbJ_s_1SJW-38" value="" style="rounded=1;whiteSpace=wrap;html=1;fillColor=none;" vertex="1" parent="1">
          <mxGeometry x="1075" y="304" width="195" height="166" as="geometry" />
        </mxCell>
        <mxCell id="Hi555N7dm8DbJ_s_1SJW-39" value="Express" style="text;html=1;align=center;verticalAlign=middle;whiteSpace=wrap;rounded=0;" vertex="1" parent="1">
          <mxGeometry x="1100" y="310" width="60" height="30" as="geometry" />
        </mxCell>
        <mxCell id="Hi555N7dm8DbJ_s_1SJW-40" value="" style="rounded=1;whiteSpace=wrap;html=1;" vertex="1" parent="1">
          <mxGeometry x="1090" y="350" width="150" height="100" as="geometry" />
        </mxCell>
        <mxCell id="Hi555N7dm8DbJ_s_1SJW-41" style="edgeStyle=orthogonalEdgeStyle;rounded=0;orthogonalLoop=1;jettySize=auto;html=1;exitX=0.5;exitY=1;exitDx=0;exitDy=0;" edge="1" parent="1" source="Hi555N7dm8DbJ_s_1SJW-38" target="Hi555N7dm8DbJ_s_1SJW-38">
          <mxGeometry relative="1" as="geometry" />
        </mxCell>
        <mxCell id="Hi555N7dm8DbJ_s_1SJW-42" value="BaaS&lt;div&gt;Parse_Server&lt;/div&gt;" style="text;html=1;align=center;verticalAlign=middle;whiteSpace=wrap;rounded=0;" vertex="1" parent="1">
          <mxGeometry x="1135" y="380" width="60" height="30" as="geometry" />
        </mxCell>
        <mxCell id="Hi555N7dm8DbJ_s_1SJW-43" value="Stripe" style="rounded=1;whiteSpace=wrap;html=1;" vertex="1" parent="1">
          <mxGeometry x="285.5" y="141" width="120" height="50" as="geometry" />
        </mxCell>
        <mxCell id="Hi555N7dm8DbJ_s_1SJW-45" value="Payments" style="text;html=1;align=center;verticalAlign=middle;whiteSpace=wrap;rounded=0;fontStyle=1" vertex="1" parent="1">
          <mxGeometry x="315.5" y="101" width="60" height="30" as="geometry" />
        </mxCell>
      </root>
    </mxGraphModel>
  </diagram>
</mxfile>
